# xmcd
#
# Track frame offsets: 
#        150
#        33454
#        75440
#        125125
#        196895
#
# Disc length: 2854 seconds
#
# Revision: 0
# Processed by: cddbd v1.5.2PL0 Copyright (c) Steve Scherf et al.
# Submitted via: ExactAudioCopy v0.99pb3
#
DISCID=3a0b2405
DTITLE=Jimmy Thackery and The Drivers - As Live As It Gets (Disk 1)
DYEAR=2012
DGENRE=Blues
TTITLE0=A Letter To My Girlfriend
TTITLE1=Blind Man In the Night
TTITLE2=Gangster Of Love
TTITLE3=Gypsy Woman
TTITLE4=Kickin' Chicken
EXTD=
EXTT0=
EXTT1=
EXTT2=
EXTT3=
EXTT4=
PLAYORDER=
